Lady Gaga - Live on GMA (2011-05-27 1080i HDTV) 

      # The Edge Of Glory.
 
      # Judas.

      # Born This Way.

      # Hair

      Format : AVI
      Format/Info : Audio Video Interleave
      Format profile : OpenDML
      File size : 1.41 GiB
      Duration : 37mn 45s
      Overall bit rate : 5 362 Kbps
      Writing application : Lavf51.12.1
   Video #0
      ID : 0
      Format : MPEG-4 Visual
      Codec ID : DIV3
      Codec ID/Hint : DivX 3 Low
      Duration : 37mn 45s
      Bit rate : 5 271 Kbps
      Width : 1 920 pixels
      Height : 1 080 pixels
      Display aspect ratio : 16:9
      Frame rate : 29.970 fps
      Resolution : 24 bits
      Bits/(Pixel*Frame) : 0.085
      Stream size : 1.39 GiB (98%)
   Audio #1
      ID : 1
      Format : MPEG Audio
      Format version : Version 1
      Format profile : Layer 3
      Codec ID : 55
      Codec ID/Hint : MP3
      Duration : 16mn 34s
      Bit rate mode : Constant
      Bit rate : 192 Kbps
      Channel(s) : 2 channels
      Sampling rate : 44.1 KHz
      Resolution : 16 bits
      Stream size : 22.8 MiB (2%)
      Alignment : Aligned on interleaves
      Interleave, duration : 26 ms (0.78 video frame)
      Interleave, preload duration : 26 ms